<mxfile host="app.diagrams.net" modified="2021-06-19T15:33:19.052Z" agent="5.0 (X11; CrOS aarch64 13904.41.0) AppleWebKit/537.36 (KHTML, like Gecko) Chrome/91.0.4472.81 Safari/537.36" etag="2YDGI891ke_z3micYMhs" version="14.7.10" type="github">
  <diagram id="Hlb7wIXLQgSF9Rb-RpAz" name="Page-1">
    <mxGraphModel dx="852" dy="514" grid="1" gridSize="10" guides="1" tooltips="1" connect="1" arrows="1" fold="1" page="1" pageScale="1" pageWidth="850" pageHeight="1100" math="0" shadow="0">
      <root>
        <mxCell id="0" />
        <mxCell id="1" parent="0" />
        <mxCell id="BxtMbeHht18FxZ3nREIo-7" style="edgeStyle=orthogonalEdgeStyle;rounded=0;orthogonalLoop=1;jettySize=auto;html=1;exitX=0.5;exitY=1;exitDx=0;exitDy=0;exitPerimeter=0;entryX=0.5;entryY=0;entryDx=0;entryDy=0;" edge="1" parent="1" source="BxtMbeHht18FxZ3nREIo-1" target="BxtMbeHht18FxZ3nREIo-2">
          <mxGeometry relative="1" as="geometry" />
        </mxCell>
        <mxCell id="BxtMbeHht18FxZ3nREIo-1" value="Start" style="strokeWidth=2;html=1;shape=mxgraph.flowchart.terminator;whiteSpace=wrap;" vertex="1" parent="1">
          <mxGeometry x="370" y="240" width="100" height="60" as="geometry" />
        </mxCell>
        <mxCell id="BxtMbeHht18FxZ3nREIo-8" style="edgeStyle=orthogonalEdgeStyle;rounded=0;orthogonalLoop=1;jettySize=auto;html=1;exitX=0.5;exitY=1;exitDx=0;exitDy=0;entryX=0.602;entryY=-0.036;entryDx=0;entryDy=0;entryPerimeter=0;" edge="1" parent="1" source="BxtMbeHht18FxZ3nREIo-2" target="BxtMbeHht18FxZ3nREIo-3">
          <mxGeometry relative="1" as="geometry" />
        </mxCell>
        <mxCell id="BxtMbeHht18FxZ3nREIo-2" value="import radius" style="shape=parallelogram;html=1;strokeWidth=2;perimeter=parallelogramPerimeter;whiteSpace=wrap;rounded=1;arcSize=12;size=0.23;" vertex="1" parent="1">
          <mxGeometry x="370" y="320" width="100" height="60" as="geometry" />
        </mxCell>
        <mxCell id="BxtMbeHht18FxZ3nREIo-9" style="edgeStyle=orthogonalEdgeStyle;rounded=0;orthogonalLoop=1;jettySize=auto;html=1;exitX=0.5;exitY=1;exitDx=0;exitDy=0;entryX=0.5;entryY=0;entryDx=0;entryDy=0;" edge="1" parent="1" source="BxtMbeHht18FxZ3nREIo-3" target="BxtMbeHht18FxZ3nREIo-4">
          <mxGeometry relative="1" as="geometry" />
        </mxCell>
        <mxCell id="BxtMbeHht18FxZ3nREIo-3" value="import height" style="shape=parallelogram;html=1;strokeWidth=2;perimeter=parallelogramPerimeter;whiteSpace=wrap;rounded=1;arcSize=12;size=0.23;" vertex="1" parent="1">
          <mxGeometry x="360" y="410" width="100" height="60" as="geometry" />
        </mxCell>
        <mxCell id="BxtMbeHht18FxZ3nREIo-10" style="edgeStyle=orthogonalEdgeStyle;rounded=0;orthogonalLoop=1;jettySize=auto;html=1;exitX=0.5;exitY=1;exitDx=0;exitDy=0;entryX=0.5;entryY=0;entryDx=0;entryDy=0;" edge="1" parent="1" source="BxtMbeHht18FxZ3nREIo-4" target="BxtMbeHht18FxZ3nREIo-5">
          <mxGeometry relative="1" as="geometry" />
        </mxCell>
        <mxCell id="BxtMbeHht18FxZ3nREIo-4" value="volume = pi * radius **2 *height" style="rounded=1;whiteSpace=wrap;html=1;absoluteArcSize=1;arcSize=14;strokeWidth=2;" vertex="1" parent="1">
          <mxGeometry x="360" y="490" width="100" height="60" as="geometry" />
        </mxCell>
        <mxCell id="BxtMbeHht18FxZ3nREIo-11" style="edgeStyle=orthogonalEdgeStyle;rounded=0;orthogonalLoop=1;jettySize=auto;html=1;exitX=0.5;exitY=1;exitDx=0;exitDy=0;entryX=0.5;entryY=0;entryDx=0;entryDy=0;entryPerimeter=0;" edge="1" parent="1" source="BxtMbeHht18FxZ3nREIo-5" target="BxtMbeHht18FxZ3nREIo-6">
          <mxGeometry relative="1" as="geometry" />
        </mxCell>
        <mxCell id="BxtMbeHht18FxZ3nREIo-5" value="return volume" style="shape=parallelogram;html=1;strokeWidth=2;perimeter=parallelogramPerimeter;whiteSpace=wrap;rounded=1;arcSize=12;size=0.23;" vertex="1" parent="1">
          <mxGeometry x="360" y="580" width="100" height="60" as="geometry" />
        </mxCell>
        <mxCell id="BxtMbeHht18FxZ3nREIo-6" value="Stop" style="strokeWidth=2;html=1;shape=mxgraph.flowchart.terminator;whiteSpace=wrap;" vertex="1" parent="1">
          <mxGeometry x="360" y="660" width="100" height="60" as="geometry" />
        </mxCell>
      </root>
    </mxGraphModel>
  </diagram>
</mxfile>
